<?xml version="1.0" encoding="UTF-8"?>
<svg id="Layer_1" data-name="Layer 1" xmlns="http://www.w3.org/2000/svg" viewBox="0 0 364.51 212">
  <text transform="translate(101.14 140.56)" fill="#754167" font-family="Helvetica Neue" font-size="25.2px" letter-spacing=".25em"><tspan x="0" y="0">Stuff With</tspan></text>
  <g>
    <path fill="#b7a69e" d="M252.85,37.47c-.09,0-.17-.01-.25-.03-.11-.07-.23-.1-.36-.09-.67-.25-1.16-.9-1.16-1.66,0-.98,.8-1.77,1.77-1.77s1.77,.8,1.77,1.77-.8,1.77-1.77,1.77m-3.88,4.96l-9.71,4.51c-.21,.09-.34,.31-.32,.54l.58,9.6c.01,.24,.18,.44,.41,.51,.02,0,.04,0,.06,0l-8.42,14.21c-28.21-16.66-53.46-15.24-69.67-11.12-16.42,4.18-27.15,11.91-28.6,12.98l-8.24-16.06c.04-.06,.07-.14,.08-.21l1.41-9.52c.04-.22-.07-.45-.27-.56l-9.23-5.31-1.83-3.57,16.78,7.91c-1.42,3.88-.92,8.05,1.41,11.52,2.13,3.18,5.39,5.15,8.52,5.15,2.02,0,3.84-.83,5.25-2.41,1.38-1.54,2.01-3.36,1.89-5.43-.34-5.6-6.16-11.23-7.45-12.42l4.16-20.61,13.74,14.55c-2.3,5.11-2.12,10.59,.5,14.73,1.91,3.02,4.85,4.83,7.85,4.83,2.42,0,4.67-1.15,6.52-3.34,5.72-6.76-3.35-15.57-5.33-17.36l12.89-21.61,12.13,20.84c-4.34,4.63-6.16,11.04-4.32,15.4,1.31,3.12,4.31,4.69,8.33,4.33,2.39-.21,4.16-1.21,5.27-2.99,3.07-4.9,.04-14.16-.69-16.22l14.07-10.44,2.99,18.19c-4.57,2.64-6.63,6.29-5.66,10.05,1.18,4.56,6.52,8.12,12.18,8.12,.84,0,1.68-.08,2.5-.23,2.83-.53,4.69-1.8,5.54-3.78,1.61-3.74-.96-8.82-1.93-10.51l18.65-7.65-1.99,3.37Zm-2.8,3.93l-1.86,.14-.09-.64,3.57-1.66-1.61,2.15Zm-3.45,5.69l-.33-2.03,1.75-2.39,1.59-.12-3.01,4.54Zm-2.24,2.66l-.24-3.94c.05,.02,.11,.03,.17,.03,.05,0,.09,0,.14-.02l.8-.21,.39,2.41-1.26,1.72Zm-.42-6.92l3.1-1.44,.09,.6-1.78,2.44-1.2,.31s-.06,.03-.09,.05l-.12-1.96Zm-10.03,26.57c-27.16-17.27-51.72-15.76-67.57-11.43-15.12,4.13-25.41,11.55-27.82,13.4l-.85-1.65s0,0,0,0c.11-.08,10.99-8.49,28.35-12.91,16.01-4.08,40.95-5.47,68.83,11l-.95,1.6Zm-4.64,7.82c-21.23-13.84-43.87-13.08-59.16-9.98-15.76,3.2-27.17,9.46-28.47,10.2l-2.6-5.07c1.97-1.54,12.24-9.14,27.59-13.34,15.65-4.27,39.89-5.75,66.71,11.31l-4.07,6.87Zm-.82,1.38c-3.61-2.18-7.37-4.02-11.26-5.53,0,0,0,0,0,0-8.64-3.34-17.95-5.04-27.81-5.04-12.48,0-23.83,2.75-32.27,5.6-.09,0-.18,.04-.26,.09-.92,.32-1.81,.63-2.66,.94-.08,.01-.15,.04-.22,.08-.8,.3-1.57,.6-2.31,.89-.07,.01-.13,.04-.19,.07-1.09,.44-2.09,.85-3,1.25-.06,.02-.11,.04-.16,.07-2.76,1.21-4.68,2.19-5.54,2.64l-.63-1.23c.99-.56,12.38-6.9,28.22-10.11,15.09-3.06,37.42-3.8,58.34,9.85l-.25,.43Zm-12.32-4.1c.28-.11,.56-.21,.84-.32,.26,.1,.52,.21,.78,.32h-1.62Zm-57.05-.35c8.15-2.62,18.73-5.01,30.29-5.01,9.19,0,17.88,1.5,26,4.44-22.75,8.46-49.3,2.43-56.29,.57m64.48,5.77h2.54c-21.68,9.65-42.75,9.32-56.82,7.27-12.01-1.75-21.01-5.01-24.69-6.49h4.04c.31,0,.56-.25,.56-.56s-.25-.56-.56-.56h-3.23c.33-.16,.68-.33,1.07-.51,.07,.04,.15,.06,.24,.06h3.85c.31,0,.56-.25,.56-.56,0-.27-.2-.48-.45-.54h2.56c.31,0,.56-.25,.56-.56s-.25-.56-.56-.56h-1.81c.17-.07,.34-.14,.51-.21h3.42c.31,0,.56-.25,.56-.56,0-.16-.07-.3-.18-.4h2.48c.31,0,.55-.24,.55-.54,4.32,1.15,16.01,3.88,29.72,3.88,8.36,0,17.46-1.02,26.1-4.03,0,.3,.25,.55,.55,.55h4.66c.12,0,.22-.05,.32-.11,.32,.14,.63,.28,.94,.43h-1.26c-.31,0-.56,.25-.56,.56s.25,.56,.56,.56h3.4s.07-.01,.1-.02c.27,.14,.55,.27,.82,.42h-2.97c-.31,0-.56,.25-.56,.56s.25,.56,.56,.56h4.25c.17,0,.31-.08,.41-.19,.27,.15,.53,.3,.79,.45h-3.04c-.31,0-.56,.25-.56,.56,0,.31,.25,.55,.56,.55M123.84,49.55l-1.57-2.58,.14-.59,2.97,1.71-.29,1.94s-.06-.04-.09-.05l-1.17-.42Zm.53,5.39l-1.11-1.83,.6-2.37,.78,.28c.06,.02,.13,.03,.19,.03,.05,0,.09-.03,.13-.04l-.59,3.93Zm-2-2.85l-2.61-4.79,1.57,.26,1.53,2.53-.5,1.99Zm-4.36-8.25l3.41,1.96-.15,.63-1.84-.3-1.42-2.29Zm25.66-25.18c0-.98,.8-1.77,1.77-1.77s1.77,.79,1.77,1.77-.79,1.77-1.77,1.77-1.77-.8-1.77-1.77m36.28-8.13c0-.98,.8-1.77,1.77-1.77s1.77,.79,1.77,1.77-.8,1.77-1.77,1.77c-.98,0-1.77-.79-1.77-1.77m35.97,10.82c0-.98,.79-1.77,1.77-1.77s1.77,.8,1.77,1.77-.79,1.77-1.77,1.77-1.77-.8-1.77-1.77m-104.27,16.11c-.97,0-1.76-.79-1.76-1.76s.79-1.76,1.76-1.76,1.76,.79,1.76,1.76-.79,1.76-1.76,1.76m141.2-4.65c-1.59,0-2.89,1.3-2.89,2.89,0,.86,.39,1.63,.99,2.16l-19.66,8.07c-.15,.07-.27,.19-.32,.35-.05,.16-.03,.33,.06,.47,.04,.06,3.88,6.13,2.19,10.05-.7,1.61-2.29,2.67-4.73,3.13-.75,.14-1.52,.21-2.29,.21-5.17,0-10.05-3.2-11.1-7.29-.87-3.37,1.07-6.57,5.47-8.99,.21-.11,.32-.34,.28-.58l-3.13-19.03c1.57-.02,2.85-1.3,2.85-2.88s-1.29-2.89-2.89-2.89-2.89,1.29-2.89,2.89c0,1.06,.58,1.98,1.43,2.48l-14.59,10.84c-.2,.15-.28,.41-.19,.64,.04,.11,4.04,10.68,.94,15.63-.93,1.48-2.38,2.29-4.42,2.47-3.56,.31-6.08-.97-7.21-3.66-1.71-4.06,.14-10.15,4.39-14.49,.17-.18,.2-.45,.08-.67l-12.45-21.39c1.07-.42,1.83-1.46,1.83-2.68,0-1.59-1.29-2.89-2.89-2.89s-2.89,1.29-2.89,2.89c0,1.34,.93,2.47,2.17,2.79l-13.17,22.08c-.14,.23-.09,.53,.12,.71,.11,.09,11.1,9.54,5.56,16.1-1.63,1.92-3.59,2.94-5.67,2.94-2.62,0-5.2-1.61-6.91-4.31-2.48-3.91-2.58-9.14-.28-14,.1-.21,.06-.45-.1-.62l-14.05-14.88c1.06-.43,1.81-1.46,1.81-2.67,0-1.59-1.29-2.89-2.89-2.89s-2.89,1.29-2.89,2.89c0,1.36,.95,2.49,2.21,2.8l-4.32,21.4c-.04,.2,.03,.4,.18,.53,.07,.06,6.97,6.17,7.31,11.87,.11,1.75-.43,3.31-1.61,4.61-1.19,1.33-2.72,2.04-4.42,2.04-2.72,0-5.7-1.83-7.6-4.66-2.21-3.3-2.62-7.3-1.11-10.97,.11-.27-.01-.59-.28-.71l-18.62-8.78c.14-.33,.21-.7,.21-1.08,0-1.58-1.29-2.87-2.87-2.87s-2.87,1.29-2.87,2.87,1.29,2.87,2.87,2.87c.76,0,1.45-.31,1.97-.79l2.23,4.36c-.03,.13-.02,.27,.04,.4l2.8,5.14,19.48,37.96s.03,.04,.05,.06c.02,.03,.04,.06,.07,.08,.03,.03,.06,.05,.09,.07,.02,.01,.03,.03,.05,.04,.11,.05,10.83,5.03,26.78,7.36,4.72,.69,10.23,1.19,16.29,1.19,12.81,0,28.06-2.23,43.5-9.6,.02,0,.03-.02,.04-.03,.03-.02,.06-.04,.09-.07,.03-.03,.05-.05,.07-.08,.01-.01,.02-.02,.04-.04l5.44-9.18s0,0,0,0c0,0,0,0,0,0l18.09-30.51,1.22-1.83c.07-.11,.1-.24,.09-.36l2.47-4.16c.1,.01,.19,.03,.29,.03,1.59,0,2.89-1.29,2.89-2.89,0-1.59-1.3-2.89-2.89-2.89"/>
    <path fill="#b7a69e" d="M185.87,36.07l-.64-.32s-.09-.03-.14-.04l.35-1.81s.07,.02,.11,.02h1.38s.04,.05,.04,.05l-1.09,2.09Zm-2.67,5.12v-2.98l1.33-1.64c.05,.08,.12,.14,.2,.18l.62,.31-2.16,4.13Zm-.6-4.01l-1.74-1.72v-2.96l1.4-1.2,2.12,2.24-.37,1.91-1.41,1.73Zm-.51,3.2l-2.53-3.05c.1-.03,.2-.08,.27-.17l.52-.64,1.74,1.72v2.14Zm-3.17-3.83l-1.25-1.51,1.65-3,.43,.43v3.02l-.78,.97s-.03,.06-.05,.09m2.86-8.97l-.03,2.69-1.41,1.21-.46-.46,1.9-3.45Zm1.12-.23l3.36,5.46h-.7c-.09,0-.17,.04-.25,.07l-2.44-2.57,.04-2.96Zm-.07-2.24c-.1-.17-.29-.28-.49-.27-.2,0-.38,.12-.47,.29l-5.35,9.7c-.11,.2-.09,.45,.06,.62l6.14,7.41c.11,.13,.27,.2,.43,.2,.02,0,.04,0,.06,0,.18-.02,.35-.13,.43-.3l4.47-8.56c.09-.17,.08-.38-.02-.55l-5.26-8.56Z"/>
    <path fill="#b7a69e" d="M214.31,41.36l-.47-.54s-.08-.06-.11-.09l1.02-1.53s.06,.05,.1,.07l1.27,.52v.07s-1.81,1.5-1.81,1.5Zm-4.45,3.68l1.15-2.75,1.86-1c.02,.09,.05,.18,.12,.25l.46,.52-3.59,2.97Zm-.71-1.18l-1.15-3.79s.03,.01,.05,.01c.09,0,.18-.02,.26-.07l.73-.39,.94,2.26-.83,1.97Zm-1.44-4.75l-.57-1.88,2.68-2.12,.23,.56-1.17,2.79-1.09,.59s-.06,.04-.08,.06m6.11-7.16l-1.07,2.47-1.77,.57-.24-.6,3.09-2.44Zm.09,6.5l-1.08,1.62-1.97,1.05-.94-2.26,1.15-2.73,1.76-.56,1.09,2.88Zm1.02-6.28l.98,6.34-.65-.27c-.08-.03-.17-.04-.26-.03l-1.26-3.32,1.18-2.72Zm2.34,7.83l-1.54-9.92c-.03-.2-.16-.36-.35-.43-.18-.07-.39-.04-.55,.08l-8.69,6.87c-.18,.14-.25,.38-.19,.6l2.79,9.21c.05,.18,.19,.32,.37,.37,.05,.02,.11,.02,.16,.02,.13,0,.25-.05,.35-.13l7.44-6.16c.15-.13,.22-.32,.2-.51"/>
    <path fill="#b7a69e" d="M152.91,39.49l-.69-.2s-.1-.01-.14-.01l.04-1.83s.01,0,.02,0c.03,0,.07,0,.1-.01l1.35-.25,.05,.05-.72,2.25Zm-1.75,5.5l-.52-2.94,1.03-1.84c.07,.07,.14,.12,.23,.15l.67,.2-1.41,4.44Zm-4.25-3.16c.09-.05,.18-.12,.23-.22l.4-.72,2.01,1.4,.37,2.11-3.01-2.56Zm-.74-.76s-.02,.06-.03,.1l-1.49-1.27,1.11-3.24,.5,.35,.52,2.97-.6,1.08Zm1.24-9.23l.43,2.66-1.18,1.43-.53-.37,1.28-3.73Zm1.12,3.58l2.47,1.83-.04,1.95-1.09,1.95-2.01-1.39-.51-2.92,1.17-1.43Zm4.19,.8l-.69,.13c-.09,.02-.17,.06-.24,.11l-2.85-2.11-.48-2.93,4.25,4.8Zm-4.71-6.99c-.13-.15-.33-.22-.52-.18-.2,.04-.35,.18-.42,.36l-3.6,10.48c-.07,.22,0,.46,.17,.6l7.33,6.24c.1,.09,.23,.13,.36,.13,.05,0,.1,0,.15-.02,.18-.05,.32-.19,.38-.37l1.95-6.14h0s.97-3.06,.97-3.06c.06-.19,.02-.39-.11-.54l-6.66-7.52Z"/>
    <path fill="#b7a69e" d="M146.12,74.81c-.45,0-.83-.37-.83-.83s.37-.83,.83-.83,.83,.37,.83,.83-.37,.83-.83,.83m0-2.77c-1.07,0-1.94,.87-1.94,1.94s.87,1.94,1.94,1.94,1.94-.87,1.94-1.94-.87-1.94-1.94-1.94"/>
    <path fill="#b7a69e" d="M157.74,70.27c-.46,0-.83-.37-.83-.83s.37-.83,.83-.83,.83,.37,.83,.83-.37,.83-.83,.83m0-2.77c-1.07,0-1.94,.87-1.94,1.94s.87,1.94,1.94,1.94,1.94-.87,1.94-1.94-.87-1.94-1.94-1.94"/>
    <path fill="#b7a69e" d="M169.7,67.07c-.46,0-.83-.37-.83-.83s.37-.83,.83-.83,.83,.37,.83,.83-.37,.83-.83,.83m0-2.77c-1.07,0-1.94,.87-1.94,1.94s.87,1.94,1.94,1.94,1.94-.87,1.94-1.94-.87-1.94-1.94-1.94"/>
    <path fill="#b7a69e" d="M183.95,65.32c0,.46-.37,.83-.83,.83s-.83-.37-.83-.83,.37-.83,.83-.83,.83,.37,.83,.83m-2.76,0c0,1.07,.87,1.94,1.94,1.94s1.94-.87,1.94-1.94-.87-1.94-1.94-1.94-1.94,.87-1.94,1.94"/>
    <path fill="#b7a69e" d="M196.13,65.41c.45,0,.83,.37,.83,.83s-.37,.83-.83,.83-.83-.37-.83-.83,.37-.83,.83-.83m0,2.77c1.07,0,1.94-.87,1.94-1.94s-.87-1.94-1.94-1.94-1.94,.87-1.94,1.94c0,1.07,.87,1.94,1.94,1.94"/>
    <path fill="#b7a69e" d="M210.17,68.59c.46,0,.83,.37,.83,.83s-.37,.83-.83,.83-.83-.37-.83-.83,.37-.83,.83-.83m0,2.76c1.07,0,1.94-.87,1.94-1.94s-.87-1.94-1.94-1.94-1.94,.87-1.94,1.94c0,1.07,.87,1.94,1.94,1.94"/>
    <path fill="#b7a69e" d="M220.85,73.4c.46,0,.83,.37,.83,.83s-.37,.83-.83,.83-.83-.37-.83-.83,.37-.83,.83-.83m0,2.76c1.07,0,1.94-.87,1.94-1.94s-.87-1.94-1.94-1.94-1.94,.87-1.94,1.94c0,1.07,.87,1.94,1.94,1.94"/>
  </g>
  <g>
    <path fill="#754167" d="M49.49,154.8c2.59,0,6.98,.22,8.06,.22,1.87,0,2.3-.79,2.95-.79,.29,0,.43,.07,.43,.36,0,.43-.43,.94-.43,1.8,0,1.22,.72,2.66,.72,6.12,0,.5-.29,.72-.5,.72-.43,0-.43-.22-.58-.65-.5-1.94-2.52-3.67-3.38-4.25-1.3-.86-4.1-1.37-6.19-1.37-2.45,0-5.33,0-5.76,3.1-.5,2.81-.65,5.47-.65,11.95,3.1,.65,6.34,2.23,9.65,2.23,3.1,0,3.89-1.15,4.54-1.15,.14,0,.36,.14,.36,.43,0,.14-.07,.43-.36,.79-.72,1.15-2.59,3.46-6.05,3.46-2.81,0-4.83-1.01-8.14-2.66,0,12.96,.07,16.27,.58,18.72,.5,2.09,2.02,3.89,3.96,4.25,.79,.14,1.08,.22,1.08,.5,0,.43-.36,.5-1.3,.5-2.74,0-5.26-1.22-7.2-1.22-2.3,0-4.61,1.22-7.56,1.22-.94,0-1.3-.07-1.3-.5,0-.29,.36-.36,1.08-.5,1.94-.36,3.6-2.16,3.96-4.25,.58-3.17,.58-8.71,.58-19.59-1.66,.43-2.59,.43-4.61,2.74-.14,.14-.36,.29-.58,.29s-.43-.29-.43-.58c0-1.08,2.95-4.25,5.62-4.82,0-1.8-.07-3.53-.07-5.54,0-2.52,.86-4.25,1.8-5.62-1.08,.5-2.45,.79-3.74,.79-7.13,0-10.37-5.18-16.35-5.18-7.06,0-12.82,4.61-12.82,11.09,0,10.8,8.57,12.38,11.81,12.38,2.02,0,4.1-.5,5.04-.94,.22-.14,.43-.22,.5-.22,.36,0,.43,.22,.43,.43,0,.14-.07,.36-.5,.58-1.01,.58-2.88,1.3-6.55,1.3-2.95,0-13.61-1.01-13.61-13.54,0-7.63,6.41-14.76,16.56-14.76,6.98,0,11.23,4.18,17.79,4.18,4.1,0,7.2-3.24,8.35-4.46,.22-.29,.36-.36,.5-.36,.29,0,.43,.14,.43,.43,0,.22-.07,.36-.22,.65-.29,.58-.72,1.22-1.44,2.23,.43-.14,2.16-.5,3.53-.5Z"/>
    <path fill="#754167" d="M79.01,182.16c-.22,0-4.03,11.23-4.03,12.96-.07,1.8,1.22,2.66,2.16,2.88,.43,.07,.72,.29,.72,.58,0,.36-.29,.5-.86,.5-2.45,0-3.31-1.22-5.11-1.22-2.16,0-3.46,1.22-6.91,1.22-.58,0-.94-.14-.94-.5,0-.29,.22-.43,1.15-.58,1.87-.22,4.61-1.94,5.9-4.32,3.89-7.63,12.46-31.83,12.46-33.92,0-2.81-1.22-3.46-3.02-3.82-.58-.14-.86-.36-.86-.58,.07-.36,.22-.58,1.15-.58,2.88,.07,4.39,1.15,5.76,1.15,1.73,0,2.02-1.15,2.88-1.15,.65,0,.65,1.44,1.01,2.74,.94,3.38,8.86,27.72,13.11,35.43,1.3,2.3,3.1,4.61,5.11,4.97,.79,.14,1.15,.22,1.15,.58s-.29,.58-1.3,.58c-3.31,0-4.97-1.22-7.7-1.22-1.87,0-3.38,1.22-5.91,1.22-.5,0-.72-.22-.72-.5,0-.36,.22-.43,.79-.65,.94-.29,1.73-.72,1.73-2.3,.07-2.81-3.67-13.39-4.18-13.46-.94-.22-3.31-.43-6.48-.43s-6.12,.14-7.06,.43Zm12.53-3.17l-5.4-16.35-5.76,16.35c-.14,.29,2.59,.5,5.69,.5,2.81,0,5.54-.07,5.47-.5Z"/>
    <path fill="#754167" d="M162.32,174.89c0,11.52,.29,20.45,.29,23.98,0,.79-.36,1.87-1.51,1.87-1.08,0-1.73-.72-2.02-1.08-13.68-15.63-24.05-27.15-31.61-35.5-.22,3.31-.43,8.86-.43,14.11,0,8.06,.22,12.82,.5,15.12,.36,2.95,1.94,4.32,3.02,4.68,.65,.22,.94,.29,.94,.58s-.29,.43-.79,.43c-1.58,0-3.53-1.22-5.26-1.22-2.16,0-4.32,1.22-7.34,1.22-.5,0-.86-.07-.86-.5,0-.29,.14-.43,.94-.58,1.94-.36,4.32-1.73,4.9-4.68,.5-2.38,.58-7.99,.58-15.05,0-9.22,.07-11.52,.07-14.55,0-5.54-2.02-7.27-5.62-7.78-.72-.14-.86-.36-.86-.65,0-.36,.22-.5,1.15-.5,3.02,0,5.11,1.15,6.7,1.15,1.01,0,2.16-.36,3.02-1.15,.22-.22,.43-.5,.94-.5,.36,0,.58,.36,.58,.79,0,.65,.58,1.51,1.08,2.09,8.64,10.66,18.79,22.03,28.01,31.61,0-7.2,.07-10.94,.07-13.9,0-6.48-.07-12.53-.29-14.55-.36-2.95-2.09-4.25-3.02-4.61-.5-.14-1.01-.22-1.01-.58s.22-.5,.65-.5c1.87,0,3.6,1.37,5.33,1.37,2.09,0,3.53-1.22,7.34-1.22,.43,0,.65,.14,.65,.43,0,.36-.5,.36-1.22,.58-1.94,.43-3.89,1.8-4.54,4.75-.22,1.3-.36,7.34-.36,14.33Z"/>
    <path fill="#754167" d="M202.92,198.07c.79,.14,1.08,.22,1.08,.5,0,.43-.36,.5-1.22,.5-2.81,0-5.26-1.22-7.27-1.22-2.3,0-4.54,1.22-7.56,1.22-.86,0-1.22-.07-1.22-.5,0-.29,.29-.36,1.08-.5,1.94-.36,3.6-2.16,3.96-4.25,.5-3.17,.5-8.71,.5-16.85,0-8.93-.22-13.83-.72-16.92-.14-1.01-.43-2.02-1.37-2.52-.29-.22-1.08-.29-2.23-.29-2.23,0-5.47,.36-6.84,1.01-1.8,.79-3.89,2.59-4.9,5.9-.22,.58-.5,.79-.79,.79-.36,0-.65-.29-.65-.79,0-2.52,.5-4.61,.94-5.98,.14-.43,.36-1.22,.36-1.51,0-.94-.43-1.51-.72-1.87,0-.07-.36-.43-.36-.58,0-.36,.29-.5,.58-.5,.72,0,1.01,.72,6.41,1.01,.94,.07,4.97,.14,13.1,.14s12.39-.07,13.32-.14c5.4-.29,5.69-1.01,6.41-1.01,.29,0,.58,.14,.58,.5,0,.14-.36,.5-.36,.58-.29,.36-.72,.94-.72,1.87,0,.29,.22,1.08,.36,1.51,.43,1.37,.94,3.46,.94,5.98,0,.5-.29,.79-.65,.79-.29,0-.58-.22-.79-.79-1.01-3.31-3.1-5.11-4.9-5.9-1.37-.65-4.61-1.01-6.84-1.01-1.15,0-2.02,.07-2.3,.29-.86,.5-.94,1.51-1.15,2.52-.5,3.17-.65,8.71-.65,16.92,0,8.86,.14,13.75,.65,16.85,.36,2.09,2.02,3.89,3.96,4.25Z"/>
    <path fill="#754167" d="M230.93,182.16c-.22,0-4.03,11.23-4.03,12.96-.07,1.8,1.22,2.66,2.16,2.88,.43,.07,.72,.29,.72,.58,0,.36-.29,.5-.86,.5-2.45,0-3.31-1.22-5.11-1.22-2.16,0-3.46,1.22-6.91,1.22-.58,0-.94-.14-.94-.5,0-.29,.22-.43,1.15-.58,1.87-.22,4.61-1.94,5.9-4.32,3.89-7.63,12.46-31.83,12.46-33.92,0-2.81-1.22-3.46-3.02-3.82-.58-.14-.86-.36-.86-.58,.07-.36,.22-.58,1.15-.58,2.88,.07,4.39,1.15,5.76,1.15,1.73,0,2.02-1.15,2.88-1.15,.65,0,.65,1.44,1.01,2.74,.94,3.38,8.86,27.72,13.11,35.43,1.3,2.3,3.1,4.61,5.11,4.97,.79,.14,1.15,.22,1.15,.58s-.29,.58-1.3,.58c-3.31,0-4.97-1.22-7.7-1.22-1.87,0-3.38,1.22-5.91,1.22-.5,0-.72-.22-.72-.5,0-.36,.22-.43,.79-.65,.94-.29,1.73-.72,1.73-2.3,.07-2.81-3.67-13.39-4.18-13.46-.94-.22-3.31-.43-6.48-.43s-6.12,.14-7.06,.43Zm12.53-3.17l-5.4-16.35-5.76,16.35c-.14,.29,2.59,.5,5.69,.5,2.81,0,5.54-.07,5.47-.5Z"/>
    <path fill="#754167" d="M289.97,188.71c0-10.87-20.81-11.52-20.81-23.55,0-7.2,5.54-10.94,13.97-10.94,3.46,0,5.4,.72,7.34,.72,1.08,0,1.66-.65,2.23-.65,.43,0,.58,.14,.58,.43,0,.72-.65,1.51-.65,2.45,0,1.87,.94,3.89,.94,6.98,0,.5-.29,.79-.65,.79-.29,0-.58-.14-.79-.94-1.15-3.74-5.33-7.92-9.58-7.92s-7.13,3.1-7.13,7.7c0,8.64,21.39,9.79,21.39,23.4,0,7.56-6.7,12.96-15.12,12.96-2.3,0-3.96-.58-5.26-.94-.94-.29-1.73-.5-2.16-.5-1.8,0-2.09,.94-2.88,.94-.43,0-.79-.29-.79-.72,0-.65,.72-1.15,.72-2.66,0-1.94-1.08-3.38-1.08-7.42,0-.79,.22-1.08,.65-1.08s.65,.29,.72,1.01c1.01,4.39,5.76,8.86,10.58,8.86,5.33,0,7.78-4.32,7.78-8.93Z"/>
    <path fill="#754167" d="M351.03,147.09c5.76,0,8.42,3.17,9.07,4.9,.07,.36,.14,.65,.14,.79,0,.29-.14,.43-.36,.43s-.29-.14-.5-.43c-.79-.94-2.59-3.1-8.42-3.1-3.96,0-7.56,2.95-12.53,9.58-2.38,3.17-6.19,9.5-11.3,17.57-.65,1.01-1.51,2.52-1.51,4.39,0,8.14,.07,9.5,.58,12.6,.36,2.09,2.02,3.89,3.96,4.25,.72,.14,1.08,.22,1.08,.5,0,.43-.36,.5-1.3,.5-2.74,0-5.26-1.22-7.2-1.22-2.3,0-4.61,1.22-7.56,1.22-.94,0-1.3-.07-1.3-.5,0-.29,.29-.36,1.08-.5,1.94-.36,3.6-2.16,3.96-4.25,.5-3.1,.65-4.82,.65-12.96,0-.65-.14-1.73-.43-2.3-3.31-6.62-8.21-13.61-11.16-17.71-1.87-2.52-3.96-4.54-6.41-5.04-.86-.22-1.08-.22-1.08-.58,0-.29,.22-.43,.94-.43,3.46,0,5.26,1.22,7.71,1.22,2.3,0,3.53-1.22,7.71-1.22,.58,0,.72,.14,.72,.5,0,.29-.29,.36-.86,.5-1.15,.22-1.87,.72-1.87,1.87,0,1.87,4.61,9.43,9.65,17.64,3.89-6.26,8.57-14.4,11.09-17.79,4.39-5.9,9.29-10.44,15.48-10.44Z"/>
  </g>
</svg>